<svg width="172" height="122" viewBox="0 0 172 122" fill="none" xmlns="http://www.w3.org/2000/svg">
<rect x="0.5" y="0.5" width="171" height="121" rx="10.5" fill="white" stroke="#E9E9EA"/>
<path d="M96 61C96 66.5228 91.5228 71 86 71C80.4772 71 76 66.5228 76 61C76 55.4772 80.4772 51 86 51C91.5228 51 96 55.4772 96 61Z" fill="white"/>
<path fill-rule="evenodd" clip-rule="evenodd" d="M86 69C90.4183 69 94 65.4183 94 61C94 56.5817 90.4183 53 86 53C81.5817 53 78 56.5817 78 61C78 65.4183 81.5817 69 86 69ZM86 71C91.5228 71 96 66.5228 96 61C96 55.4772 91.5228 51 86 51C80.4772 51 76 55.4772 76 61C76 66.5228 80.4772 71 86 71Z" fill="#E9E9EA"/>
<path d="M61 41H76V43H61C59.3431 43 58 44.3431 58 46V56H56V46C56 43.2386 58.2386 41 61 41Z" fill="#E9E9EA"/>
<path d="M56 66V76C56 78.7614 58.2386 81 61 81H76V79H61C59.3431 79 58 77.6569 58 76V66H56Z" fill="#E9E9EA"/>
<path d="M114 66V76C114 77.6569 112.657 79 111 79H96V81H111C113.761 81 116 78.7614 116 76V66H114Z" fill="#E9E9EA"/>
<path d="M116 56V46C116 43.2386 113.761 41 111 41H96V43H111C112.657 43 114 44.3431 114 46V56H116Z" fill="#E9E9EA"/>
</svg>
